<?xml version='1.0' encoding='utf-8'?>
<svg xmlns="http://www.w3.org/2000/svg" version="1.1" width="800" height="500" viewBox="0 0 800 500">
  <line x1="100" y1="100" x2="100" y2="400" stroke="black" stroke-width="2" />
  <line x1="100" y1="400" x2="700" y2="400" stroke="black" stroke-width="2" />
  <text x="40" y="105" font-family="Arial" font-size="14" style="fill:black">80m</text>
  <text x="40" y="405" font-family="Arial" font-size="14" style="fill:black">2m</text>
  <text x="320.0" y="440" font-family="Arial" font-size="16" style="fill:black">Distancia total: 6.5 km</text>
  <text x="250.0" y="80" font-family="Arial" font-size="14" style="fill:black;font-weight:bold">Ruta de la Costa Vasca: De Getaria a Zumaia</text>
  <polyline points="100.0,365.4 100.0,365.4 123.3,342.9 383.7,371.8 579.1,125.0 653.5,375.0 700.0,349.4 700.0,400.0 100.0,400.0" stroke="blue" stroke-width="4" fill="lightblue" />
  <line x1="579.0697674418604" y1="125.0" x2="579.0697674418604" y2="107.0" stroke="black" stroke-width="1" />
  <text x="561.0697674418604" y="103.0" font-family="Arial" font-size="12" style="fill:black;font-weight:bold">80m</text>
  <line x1="185.71428571428572" y1="40" x2="185.71428571428572" y2="400" stroke="#9e9e9e" stroke-width="1" stroke-dasharray="4 3" />
  <text x="185.7" y="44" font-family="Arial" font-size="9" fill="#1a237e" text-anchor="end" transform="rotate(-90,185.7,44)">Puerto pesquero de Getaria</text>
  <line x1="271.42857142857144" y1="40" x2="271.42857142857144" y2="400" stroke="#9e9e9e" stroke-width="1" stroke-dasharray="4 3" />
  <text x="271.4" y="44" font-family="Arial" font-size="9" fill="#1a237e" text-anchor="end" transform="rotate(-90,271.4,44)">Museo Cristóbal Balenciaga</text>
  <line x1="357.1428571428571" y1="40" x2="357.1428571428571" y2="400" stroke="#9e9e9e" stroke-width="1" stroke-dasharray="4 3" />
  <text x="357.1" y="44" font-family="Arial" font-size="9" fill="#1a237e" text-anchor="end" transform="rotate(-90,357.1,44)">Playa de Malkorbe</text>
  <line x1="442.85714285714283" y1="40" x2="442.85714285714283" y2="400" stroke="#9e9e9e" stroke-width="1" stroke-dasharray="4 3" />
  <text x="442.9" y="44" font-family="Arial" font-size="9" fill="#1a237e" text-anchor="end" transform="rotate(-90,442.9,44)">Acantilados del Flysch de Zumaia</text>
  <line x1="528.5714285714286" y1="40" x2="528.5714285714286" y2="400" stroke="#9e9e9e" stroke-width="1" stroke-dasharray="4 3" />
  <text x="528.6" y="44" font-family="Arial" font-size="9" fill="#1a237e" text-anchor="end" transform="rotate(-90,528.6,44)">Playa de Itzurun</text>
  <line x1="614.2857142857142" y1="40" x2="614.2857142857142" y2="400" stroke="#9e9e9e" stroke-width="1" stroke-dasharray="4 3" />
  <text x="614.3" y="44" font-family="Arial" font-size="9" fill="#1a237e" text-anchor="end" transform="rotate(-90,614.3,44)">Centro de Interpretación Algorri (Zumaia)</text>
</svg>